<?xml version="1.0" standalone="no"?><!DOCTYPE svg PUBLIC "-//W3C//DTD SVG 1.1//EN" "http://www.w3.org/Graphics/SVG/1.1/DTD/svg11.dtd"><svg t="1730208249027" class="icon" viewBox="0 0 1024 1024" version="1.1" xmlns="http://www.w3.org/2000/svg" p-id="2931" xmlns:xlink="http://www.w3.org/1999/xlink" width="20" height="20"><path d="M216.2 437.6v258c0 20.4 16.5 36.9 36.9 36.9h516c20.4 0 36.9-16.5 36.9-36.9v-258c0-20.4 16.5-36.9 36.9-36.9s36.9 16.5 36.9 36.9v294.9c0 40.7-33 73.7-73.7 73.7H216.2c-40.7 0-73.7-33-73.7-73.7V437.6c0-20.4 16.5-36.9 36.9-36.9 20.3 0.1 36.8 16.6 36.8 36.9z m297.2 219.9c-0.8 0-1.5 0.1-2.3 0.1s-1.6 0-2.3-0.1c-9.1-0.2-18.2-3.8-25.1-10.8L327.2 490.4c-14.4-14.4-14.4-37.7 0-52.1 14.4-14.4 37.7-14.4 52.1 0l94.8 94.8V104.7c0-20.4 16.5-36.9 36.9-36.9s36.9 16.5 36.9 36.9V533l94.8-94.8c14.4-14.4 37.7-14.4 52.1 0 14.4 14.4 14.4 37.7 0 52.1L538.5 646.7c-7 7-16 10.6-25.1 10.8z" p-id="2932" fill="#ffffff"></path></svg>