<?xml version="1.0" standalone="no"?><!DOCTYPE svg PUBLIC "-//W3C//DTD SVG 1.1//EN" "http://www.w3.org/Graphics/SVG/1.1/DTD/svg11.dtd"><svg t="1730208803731" class="icon" viewBox="0 0 1024 1024" version="1.1" xmlns="http://www.w3.org/2000/svg" p-id="2845" xmlns:xlink="http://www.w3.org/1999/xlink" width="20" height="20"><path d="M0 0h1023.997724v1023.997724H0z" fill="#ffffff" fill-opacity=".01" p-id="2846"></path><path d="M266.808296 307.199317a34.588368 34.588368 0 0 1-35.043478-34.133257c0-18.83018 15.701298-34.133257 34.986589-34.133258h489.755356c19.342179 0 34.986589 15.303077 34.986589 34.133258 0 18.83018-15.701298 34.133257-34.986589 34.133257H266.751407z m0 238.932803a34.588368 34.588368 0 0 1-35.043478-34.133258c0-18.83018 15.701298-34.133257 34.986589-34.133257h489.755356c19.342179 0 34.986589 15.303077 34.986589 34.133257 0 18.83018-15.701298 34.133257-34.986589 34.133258H266.751407z m0 238.932802a34.588368 34.588368 0 0 1-35.043478-34.133257c0-18.83018 15.701298-34.133257 34.986589-34.133258h139.946356c19.342179 0 34.986589 15.303077 34.986589 34.133258 0 18.83018-15.701298 34.133257-34.986589 34.133257h-139.946356z" fill="#ffffff" p-id="2847"></path><path d="M835.127033 821.587508a35.612365 35.612365 0 0 1 49.379446 3.413325 33.56437 33.56437 0 0 1-3.413326 48.127893l-168.22007 142.50635a35.498588 35.498588 0 0 1-22.926172 8.362648H165.148077A107.974871 107.974871 0 0 1 56.888762 916.364186V107.633539C56.888762 48.412337 105.187322 0 165.148077 0h692.962016c60.017644 0 108.259315 48.355448 108.259315 107.633539v601.939995c0 18.887069-15.64441 34.133257-34.986589 34.133258a34.588368 34.588368 0 0 1-34.986589-34.133258V107.690427a38.855025 38.855025 0 0 0-38.286137-39.423912H165.204966a38.855025 38.855025 0 0 0-38.343026 39.367024v808.730647c0 21.959062 17.351073 39.367024 38.286137 39.367023h511.714419l158.321426-134.143701z" fill="#ffffff" p-id="2848"></path><path d="M721.520174 988.954247c0 18.83018-15.64441 34.133257-34.986589 34.133257a34.588368 34.588368 0 0 1-34.986588-34.133257v-198.655559c0-59.164313 48.298559-107.633539 108.259315-107.633538h172.37295c19.28529 0 34.9297 15.303077 34.9297 34.133257 0 18.83018-15.64441 34.133257-34.986589 34.133258h-172.316061a38.855025 38.855025 0 0 0-38.286138 39.367023v198.655559z" fill="#ffffff" p-id="2849"></path></svg>