<?xml version="1.0" standalone="no"?><!DOCTYPE svg PUBLIC "-//W3C//DTD SVG 1.1//EN" "http://www.w3.org/Graphics/SVG/1.1/DTD/svg11.dtd"><svg t="1730208342886" class="icon" viewBox="0 0 1024 1024" version="1.1" xmlns="http://www.w3.org/2000/svg" p-id="3992" xmlns:xlink="http://www.w3.org/1999/xlink" width="20" height="20"><path d="M969.956 284.444c-2.845-5.688-2.845-8.533-8.534-14.222v-2.844C952.89 256 938.667 250.31 924.444 250.31c-28.444 0-48.355 22.756-48.355 48.356 0 11.377 5.689 22.755 11.378 34.133 28.444 54.044 42.666 116.622 42.666 182.044 0 227.556-184.889 412.445-412.444 412.445S105.244 742.4 105.244 514.844 290.134 102.4 517.69 102.4c88.178 0 170.667 28.444 238.933 76.8 8.534 11.378 22.756 19.911 39.822 19.911 28.445 0 51.2-22.755 51.2-51.2 0-14.222-5.688-28.444-14.222-36.978-2.844-2.844-5.689-2.844-5.689-5.689C736.711 39.822 628.623 0 512 0 230.4 0 0 230.4 0 512s230.4 512 512 512 512-230.4 512-512c0-82.489-19.911-159.289-54.044-227.556M517.689 824.89c28.444 0 51.2-22.756 51.2-51.2v-102.4h102.4c28.444 0 51.2-22.756 51.2-51.2s-22.756-51.2-51.2-51.2h-102.4v-51.2h102.4c28.444 0 51.2-22.756 51.2-51.2s-22.756-51.2-51.2-51.2h-76.8l71.111-71.111c19.911-19.911 19.911-54.045 0-73.956-19.911-19.91-54.044-19.91-73.956 0l-68.266 68.267-68.267-68.267c-19.911-19.91-54.044-19.91-73.955 0-19.912 19.911-19.912 54.045 0 73.956l71.11 71.11h-91.022c-28.444 0-51.2 22.756-51.2 51.2s22.756 51.2 51.2 51.2h102.4v51.2h-102.4c-28.444 0-51.2 22.756-51.2 51.2s22.756 51.2 51.2 51.2h102.4v102.4c2.845 28.445 25.6 51.2 54.045 51.2" p-id="3993" fill="#ffffff"></path></svg>